<?xml version="1.0" encoding="utf-8" ?><svg xmlns="http://www.w3.org/2000/svg" xmlns:xlink="http://www.w3.org/1999/xlink" width="1024" height="1024" viewBox="0 0 1024 1024"><path fill="#BF3438" d="M288.649 245.237C290.638 247.165 292.616 249.104 294.584 251.053C302.281 257.148 309.393 262.752 317.79 267.873C358.242 292.542 404.682 297.343 451.02 291.913C479.292 288.6 507.471 282.115 535.751 278.944C584.536 273.474 635.995 276.144 681.517 295.946C689.841 299.566 699.073 303.753 706.581 308.831C710.793 311.029 714.333 313.765 718.153 316.578C737.589 330.885 754.663 350.566 762.118 373.811C764.48 381.179 765.803 388.775 766.657 396.451C799.525 417.055 820.165 450.152 828.767 487.558C839.126 531.382 831.375 577.531 807.269 615.567C789.207 644.309 758.465 671.178 726.611 683.073C729.354 677.404 732.655 671.845 734.892 665.991C745.856 637.306 749.547 612.4 742.378 582.32C717.459 607.842 688.26 624.468 651.754 625.12C650.864 625.134 649.975 625.129 649.085 625.105C648.057 625.15 647.027 625.134 646.001 625.057C629.843 623.788 612.686 615.045 602.061 602.876C586.921 634.232 587.787 677.466 602.632 708.727C614.863 734.712 636.242 755.278 662.681 766.493C671.466 770.269 678.787 772.177 687.59 775.285C681.436 775.884 675.277 776.42 669.113 776.891C589.045 783.078 517.557 764.988 455.853 711.972C420.647 682.214 394.513 643.161 380.433 599.266C377.801 590.834 374.435 578.433 373.775 569.645C293.897 586.183 212.729 547.945 192.603 464.73C195.826 469.645 200.263 474.638 204.193 479.052C235.751 511.359 270.57 523.275 315.425 521.364C337.382 520.428 352.824 516.426 372.816 507.148C377.209 504.786 381.445 502.142 385.497 499.233C386.534 498.788 391.677 494.989 392.929 494.093L387.685 495.446L375.682 497.551C375.783 489.551 380.211 475.788 382.601 467.672C385.54 455.393 395.347 436.453 401.199 424.724C408.236 412.76 413.829 402.511 422.891 391.785C427.151 387.794 434.677 378.41 438.782 373.784C446.144 365.561 454.16 357.947 462.751 351.017C459.3 350.514 439.407 348.543 437.178 349.248C429.532 348.24 421.838 347.718 414.219 346.639C398.275 344.408 382.734 339.9 368.071 333.253C337.181 319.26 312.002 295.128 296.71 264.86C293.494 258.478 291.157 251.918 288.649 245.237Z"/><path fill="#FBF5CD" d="M766.657 396.451C799.525 417.055 820.165 450.152 828.767 487.558C839.126 531.382 831.375 577.531 807.269 615.567C789.207 644.309 758.465 671.178 726.611 683.073C729.354 677.404 732.655 671.845 734.892 665.991C745.856 637.306 749.547 612.4 742.378 582.32C717.459 607.842 688.26 624.468 651.754 625.12C650.864 625.134 649.975 625.129 649.085 625.105C638.337 617.471 629.839 610.338 623.757 598.527C613.08 576.606 612.273 552.826 619.333 529.784C624.492 508.306 645.59 490.222 659.71 517.854C679.596 556.772 703.531 568.212 742.8 582.473C735.356 559.417 725.309 542.336 704.591 528.64C696.99 523.614 688.38 519.259 681.432 513.351C657.949 493.382 666.26 457.056 684.723 436.702C706.288 412.929 734.95 398.794 766.657 396.451Z"/><path fill="#9F549E" d="M288.649 245.237C290.638 247.165 292.616 249.104 294.584 251.053C302.281 257.148 309.393 262.752 317.79 267.873C358.242 292.542 404.682 297.343 451.02 291.913C479.292 288.6 507.471 282.115 535.751 278.944C584.536 273.474 635.995 276.144 681.517 295.946C689.841 299.566 699.073 303.753 706.581 308.831C702.773 309.122 689.874 303.823 685.212 302.362C680.344 300.88 675.431 299.552 670.48 298.381C633.31 289.682 590.076 292.261 553.712 302.951C543.862 305.846 534.223 309.826 524.455 312.974C516.029 318.358 501.949 324.148 492.448 329.713C479.612 337.233 474.142 342.5 462.751 351.017C459.3 350.514 439.407 348.543 437.178 349.248C429.532 348.24 421.838 347.718 414.219 346.639C398.275 344.408 382.734 339.9 368.071 333.253C337.181 319.26 312.002 295.128 296.71 264.86C293.494 258.478 291.157 251.918 288.649 245.237Z"/><path fill="#6B3079" d="M288.649 245.237C290.638 247.165 292.616 249.104 294.584 251.053C294.206 252.977 294.776 254.12 296.035 255.729C343.181 315.968 418.44 329.03 490.436 318.252C500.408 316.759 514.698 313.371 524.455 312.974C516.029 318.358 501.949 324.148 492.448 329.713C479.612 337.233 474.142 342.5 462.751 351.017C459.3 350.514 439.407 348.543 437.178 349.248C429.532 348.24 421.838 347.718 414.219 346.639C398.275 344.408 382.734 339.9 368.071 333.253C337.181 319.26 312.002 295.128 296.71 264.86C293.494 258.478 291.157 251.918 288.649 245.237Z"/><path fill="#EA4159" d="M204.193 479.052C235.751 511.359 270.57 523.275 315.425 521.364C337.382 520.428 352.824 516.426 372.816 507.148C372.486 518.579 370.59 529.359 371.348 540.761C308.427 551.573 252.255 540.883 208.777 489.504C205.92 486.127 203.843 483.645 204.193 479.052Z"/><path fill="#FEFEFE" d="M448.203 426.325C476.68 358.959 544.345 324.235 615.163 347.905C643.612 357.413 662.671 372.826 680.199 396.741C652.237 417.444 643.615 429.691 629.42 460.949C618.235 487.129 592.534 498.74 564.965 495.464C549.984 493.783 536.323 486.101 527.103 474.173C502.042 442.133 515.215 384.355 563.795 391.256C598.611 397.317 602.853 405.995 629.571 425.199C629.605 422.27 629.767 418.428 629.283 415.58C623.787 383.264 584.461 366.12 555.13 365.983C522.918 366.141 492.026 378.801 468.966 401.293C459.041 411.149 456.065 417.148 448.203 426.325Z"/><path fill="#FBF5CD" d="M629.42 460.949C618.235 487.129 592.534 498.74 564.965 495.464C549.984 493.783 536.323 486.101 527.103 474.173C502.042 442.133 515.215 384.355 563.795 391.256C560.644 394.422 557.191 397.224 553.942 400.377C537.108 416.698 536.872 444.302 553.546 460.842C560.587 467.827 568.837 469.984 578.53 470.013C588.182 470.043 592.796 467.128 601.457 464.488C605.16 463.359 612.917 464.743 616.883 463.79C621.568 462.941 624.106 460.718 629.42 460.949Z"/><path fill="#121212" d="M583.95 407.068C588.987 406.677 598.433 406.54 600.795 411.855C599.699 414.043 593.872 414.352 591.424 417.121C587.744 421.284 590.944 429.661 596.816 428.842C601.148 428.238 603.019 426.081 605.588 422.926C606.01 424.888 606.363 426.864 606.647 428.85C607.61 435.807 606.33 441.372 602.119 446.984C595.833 452.75 588.927 454.029 581.186 450.039C574.993 446.775 570.416 441.106 568.531 434.364C564.788 421.433 570.989 410.505 583.95 407.068Z"/><path fill="#9F549E" d="M397.592 425.604C395.726 425.435 388.733 426.497 386.327 426.796C379.448 427.649 373.22 428.411 366.249 428.617C330.413 429.54 295.141 419.566 265.096 400.012C228.643 376.214 203.393 341.078 195.971 297.847C194.85 291.32 194.365 284.799 193.007 278.31C194.681 281.574 196.401 284.814 198.167 288.029C203.497 295.989 207.989 302.653 214.047 310.031C236.942 337.911 270.064 358.98 305.644 366.05C346.403 374.149 399.163 365.453 437.178 349.248C439.407 348.543 459.3 350.514 462.751 351.017C454.16 357.947 446.144 365.561 438.782 373.784C434.677 378.41 427.151 387.794 422.891 391.785C413.829 402.511 408.236 412.76 401.199 424.724C400.021 424.956 398.643 425.125 397.592 425.604Z"/><path fill="#6B3079" d="M397.592 425.604C395.726 425.435 388.733 426.497 386.327 426.796C379.448 427.649 373.22 428.411 366.249 428.617C330.413 429.54 295.141 419.566 265.096 400.012C228.643 376.214 203.393 341.078 195.971 297.847C194.85 291.32 194.365 284.799 193.007 278.31C194.681 281.574 196.401 284.814 198.167 288.029C197.374 296.936 218.864 328.799 225.642 336.926C255.147 372.314 297.557 394.461 343.458 398.454C360.737 399.946 380.8 399.007 397.927 396.293C406.32 394.962 414.332 392.83 422.891 391.785C413.829 402.511 408.236 412.76 401.199 424.724C400.021 424.956 398.643 425.125 397.592 425.604Z"/><path fill="#EA4159" d="M191.257 386.19C194.478 390.251 197.767 394.257 201.125 398.206C207.574 404.967 214.929 412.489 222.441 418.005C247.451 436.371 279.348 445.623 310.249 445.965C328.959 446.172 351.448 442.519 369.28 436.762C378.333 433.839 388.625 429.198 397.592 425.604C398.643 425.125 400.021 424.956 401.199 424.724C395.347 436.453 385.54 455.393 382.601 467.672C380.211 475.788 375.783 489.551 375.682 497.551C342.819 504.281 303.74 498.966 273.365 484.834C242.411 470.586 217.368 446.027 202.521 415.356C197.887 405.697 194.911 396.196 191.257 386.19Z"/><path fill="#F46E82" d="M201.125 398.206C207.574 404.967 214.929 412.489 222.441 418.005C247.451 436.371 279.348 445.623 310.249 445.965C328.959 446.172 351.448 442.519 369.28 436.762C378.333 433.839 388.625 429.198 397.592 425.604C398.643 425.125 400.021 424.956 401.199 424.724C395.347 436.453 385.54 455.393 382.601 467.672C376.809 468.349 369.546 470.195 363.4 471.081C343.021 474.204 322.249 473.672 302.057 469.511C268.307 462.393 237.664 444.804 214.497 419.25C210.651 414.99 199.882 403.908 201.125 398.206Z"/><defs><linearGradient id="gradient_0" gradientUnits="userSpaceOnUse" x1="385.33374" y1="496.20047" x2="387.09271" y2="498.16043"><stop offset="0" stop-color="white" stop-opacity="0"/><stop offset="1" stop-color="#FDF9F9" stop-opacity="0.043137256"/></linearGradient></defs><path fill="url(#gradient_0)" d="M387.685 495.446L392.929 494.093C391.677 494.989 386.534 498.788 385.497 499.233L383.845 499.211L383.739 498.409C385.163 496.768 385.755 496.567 387.685 495.446Z"/></svg>